<svg xmlns="http://www.w3.org/2000/svg" viewBox="0 0 276.61 88.59"><g id="Layer_2" data-name="Layer 2"><g id="Layer_1-2" data-name="Layer 1"><path d="M64.28,0H4.1A4.11,4.11,0,0,0,0,4.11V18.18a4.11,4.11,0,0,0,4.1,4.1H42.58a4.13,4.13,0,0,0,2.91-1.21l8.65-8.72a4.13,4.13,0,0,1,2.91-1.21h4.82a4.1,4.1,0,0,1,4.1,4.1v7h0v6.77a4.09,4.09,0,0,1-4.1,4.1H4.1A4.11,4.11,0,0,0,0,37.25V65.64a4.09,4.09,0,0,0,1.2,2.9L20.05,87.39a4.08,4.08,0,0,0,2.9,1.2H64.28a4.11,4.11,0,0,0,2.9-1.2L86,68.54a4.09,4.09,0,0,0,1.2-2.9V23a4.09,4.09,0,0,0-1.2-2.9L67.18,1.21A4.12,4.12,0,0,0,64.28,0ZM61.87,66.32H25.35a4.1,4.1,0,0,1-4.1-4.11V59.54a4.1,4.1,0,0,1,4.1-4.1H42.59a4.13,4.13,0,0,0,2.91-1.21l8.64-8.7a4.09,4.09,0,0,1,2.91-1.21h4.82a4.09,4.09,0,0,1,4.1,4.1V62.21A4.1,4.1,0,0,1,61.87,66.32Z"/><path d="M256.57,1.2a4.11,4.11,0,0,0-2.9-1.2H212.34a4.09,4.09,0,0,0-2.9,1.2L190.59,20.05a4.09,4.09,0,0,0-1.2,2.9v42.7a4.11,4.11,0,0,0,1.2,2.9l18.85,18.84a4.09,4.09,0,0,0,2.9,1.2h60.17a4.09,4.09,0,0,0,4.1-4.1V70.42a4.09,4.09,0,0,0-4.1-4.1H234a4.09,4.09,0,0,0-2.91,1.21l-8.59,8.65a4.07,4.07,0,0,1-2.91,1.21h-4.81a4.09,4.09,0,0,1-4.1-4.1v-7h0V59.54a4.11,4.11,0,0,1,4.1-4.11h57.77a4.09,4.09,0,0,0,4.1-4.1V21.25Zm-5.31,32H234a4.09,4.09,0,0,0-2.91,1.21l-8.65,8.71a4.08,4.08,0,0,1-2.91,1.22h-4.81a4.1,4.1,0,0,1-4.1-4.1v-7h0V26.38a4.1,4.1,0,0,1,4.1-4.1h36.52a4.1,4.1,0,0,1,4.11,4.1v2.68A4.11,4.11,0,0,1,251.26,33.16Z"/><path d="M162.11.34H140.77a4.09,4.09,0,0,0-2.91,1.22l-8.65,8.71a4.11,4.11,0,0,1-2.91,1.21H108.23a4.1,4.1,0,0,0-2.93,1.24l-8,8.19a4.1,4.1,0,0,0-1.17,2.87V65.3a4.09,4.09,0,0,0,1.2,2.9l18.85,18.85a4.09,4.09,0,0,0,2.9,1.2h60.17a4.1,4.1,0,0,0,4.1-4.1V70.07a4.1,4.1,0,0,0-4.1-4.1H140.71a4.09,4.09,0,0,0-2.91,1.22l-8.59,8.65a4.07,4.07,0,0,1-2.91,1.21h-4.81a4.09,4.09,0,0,1-4.1-4.1V66h0V26.72a4.11,4.11,0,0,1,4.1-4.1h57.77a4.1,4.1,0,0,0,4.1-4.1V4.44a4.1,4.1,0,0,0-4.1-4.1Z"/></g></g></svg>