<svg xmlns="http://www.w3.org/2000/svg" viewBox="0 0 275.65 88.28"><defs><style>.cls-1{fill:#91ea57;}</style></defs><g id="Layer_2" data-name="Layer 2"><g id="Layer_1-2" data-name="Layer 1"><path class="cls-1" d="M64.05,0h-60A4.09,4.09,0,0,0,0,4.09v14A4.09,4.09,0,0,0,4.09,22.2H42.43A4.1,4.1,0,0,0,45.33,21L54,12.31a4.1,4.1,0,0,1,2.9-1.21h4.81a4.09,4.09,0,0,1,4.08,4.09v7h0V29A4.09,4.09,0,0,1,61.66,33H4.09A4.09,4.09,0,0,0,0,37.13V65.42a4.09,4.09,0,0,0,1.2,2.89L20,87.08a4.05,4.05,0,0,0,2.89,1.2H64.05a4.05,4.05,0,0,0,2.89-1.2L85.72,68.31a4.09,4.09,0,0,0,1.2-2.89V22.87A4.09,4.09,0,0,0,85.72,20L66.94,1.2A4.05,4.05,0,0,0,64.05,0ZM61.66,66.09H25.26A4.09,4.09,0,0,1,21.17,62V59.33a4.09,4.09,0,0,1,4.09-4.08H42.44A4.09,4.09,0,0,0,45.34,54L54,45.37a4.1,4.1,0,0,1,2.9-1.21h4.81a4.09,4.09,0,0,1,4.09,4.09V62A4.09,4.09,0,0,1,61.66,66.09Z"/><path class="cls-1" d="M255.67,1.2A4.05,4.05,0,0,0,252.78,0H211.6a4.09,4.09,0,0,0-2.89,1.2L189.93,20a4.05,4.05,0,0,0-1.2,2.89V65.42a4.09,4.09,0,0,0,1.2,2.89l18.78,18.78a4.12,4.12,0,0,0,2.89,1.19h60a4.08,4.08,0,0,0,4.09-4.08v-14a4.09,4.09,0,0,0-4.09-4.08h-38.4a4.08,4.08,0,0,0-2.9,1.2l-8.56,8.63a4.09,4.09,0,0,1-2.9,1.2H214A4.08,4.08,0,0,1,209.91,73v-7h0V59.33A4.09,4.09,0,0,1,214,55.24h57.57a4.09,4.09,0,0,0,4.09-4.08v-30ZM250.39,33H233.22a4.09,4.09,0,0,0-2.9,1.21l-8.62,8.68a4.06,4.06,0,0,1-2.9,1.21H214a4.09,4.09,0,0,1-4.09-4.08V33h0V26.29A4.09,4.09,0,0,1,214,22.2h36.4a4.09,4.09,0,0,1,4.09,4.09V29A4.09,4.09,0,0,1,250.39,33Z"/><path class="cls-1" d="M161.54.34H140.28a4.1,4.1,0,0,0-2.9,1.21l-8.62,8.68a4,4,0,0,1-2.9,1.21h-18a4.13,4.13,0,0,0-2.93,1.23l-8,8.17a4.06,4.06,0,0,0-1.16,2.85V65.08A4.12,4.12,0,0,0,97,68l18.78,18.78a4.12,4.12,0,0,0,2.89,1.19h60a4.09,4.09,0,0,0,4.09-4.08v-14a4.09,4.09,0,0,0-4.09-4.09H140.22a4.1,4.1,0,0,0-2.9,1.21l-8.56,8.63a4.08,4.08,0,0,1-2.9,1.2h-4.8A4.08,4.08,0,0,1,117,72.7v-7h0V26.63a4.09,4.09,0,0,1,4.09-4.09h57.57a4.09,4.09,0,0,0,4.09-4.09v-14A4.09,4.09,0,0,0,178.63.34Z"/></g></g></svg>